<svg width="24" height="24" viewBox="0 0 24 24" fill="none" xmlns="http://www.w3.org/2000/svg">
<path fill-rule="evenodd" clip-rule="evenodd" d="M12 13.6674V13.6674C11.7237 13.6674 11.4998 13.4434 11.4998 13.1672V13.1672C11.4998 13.0751 11.5744 13.0004 11.6665 13.0004H12.3335C12.4256 13.0004 12.5002 13.0751 12.5002 13.1672V13.1672C12.5002 13.4434 12.2763 13.6674 12 13.6674Z" stroke="#010101" stroke-width="1.5" stroke-linecap="round" stroke-linejoin="round"/>
<path d="M18.0025 13.0005C18.0025 13.553 18.4504 14.0009 19.0029 14.0009V14.0009C20.1079 14.0009 21.0037 13.1051 21.0037 12.0001V8.99881C21.0037 7.34126 19.66 5.99756 18.0025 5.99756H17.5854" stroke="#010101" stroke-width="1.5" stroke-linecap="round" stroke-linejoin="round"/>
<path d="M8.0496 17.8488L6.99792 21.0038" stroke="#010101" stroke-width="1.5" stroke-linecap="round" stroke-linejoin="round"/>
<path d="M15.9504 17.8488L17.0021 21.0038" stroke="#010101" stroke-width="1.5" stroke-linecap="round" stroke-linejoin="round"/>
<path d="M6.41467 5.99756H5.9975C4.33995 5.99756 2.99625 7.34126 2.99625 8.99881V12.0001C2.99625 13.1051 3.89205 14.0009 4.99708 14.0009V14.0009C5.54959 14.0009 5.9975 13.553 5.9975 13.0005" stroke="#010101" stroke-width="1.5" stroke-linecap="round" stroke-linejoin="round"/>
<path d="M14.0008 17.8315V18.5027C14.0008 19.3315 13.329 20.0034 12.5002 20.0034H11.4998C10.671 20.0034 9.99918 19.3315 9.99918 18.5027V17.8312" stroke="#010101" stroke-width="1.5" stroke-linecap="round" stroke-linejoin="round"/>
<path fill-rule="evenodd" clip-rule="evenodd" d="M12 13.6673V15.0012C12 16.6588 10.6563 18.0025 8.99875 18.0025V18.0025C7.3412 18.0025 5.9975 16.6588 5.9975 15.0012V7.9983C5.9975 5.23572 8.23701 2.99622 10.9996 2.99622H13.0004C15.763 2.99622 18.0025 5.23572 18.0025 7.9983V15.0012C18.0025 16.6588 16.6588 18.0025 15.0012 18.0025V18.0025C13.3437 18.0025 12 16.6588 12 15.0012V13.6673Z" stroke="#010101" stroke-width="1.5" stroke-linecap="round" stroke-linejoin="round"/>
<path d="M14.2509 9.49931C14.2507 9.63735 14.1388 9.74915 14.0007 9.74909C13.8627 9.74903 13.7508 9.63714 13.7507 9.49909C13.7507 9.36105 13.8625 9.24906 14.0005 9.24888C14.0669 9.2488 14.1307 9.27516 14.1777 9.32214C14.2247 9.36912 14.251 9.43287 14.2509 9.49931" stroke="#010101" stroke-width="1.5" stroke-linecap="round" stroke-linejoin="round"/>
<path d="M10.2493 9.49931C10.2491 9.63735 10.1371 9.74915 9.99906 9.74909C9.86102 9.74903 9.74913 9.63714 9.74907 9.49909C9.74901 9.36105 9.86081 9.24906 9.99885 9.24888C10.0653 9.2488 10.129 9.27516 10.176 9.32214C10.223 9.36912 10.2494 9.43287 10.2493 9.49931" stroke="#010101" stroke-width="1.5" stroke-linecap="round" stroke-linejoin="round"/>
</svg>
